<?xml version="1.0" encoding="UTF-8" standalone="no"?>
<!-- Created with Inkscape (http://www.inkscape.org/) -->

<svg
   version="1.1"
   id="svg1"
   width="400"
   height="400"
   viewBox="0 0 400 400"
   sodipodi:docname="FCB_Library_Cru_12.svg"
   inkscape:version="1.3.2 (091e20e, 2023-11-25)"
   xmlns:inkscape="http://www.inkscape.org/namespaces/inkscape"
   xmlns:sodipodi="http://sodipodi.sourceforge.net/DTD/sodipodi-0.dtd"
   xmlns="http://www.w3.org/2000/svg"
   xmlns:svg="http://www.w3.org/2000/svg">
  <defs
     id="defs1" />
  <sodipodi:namedview
     id="namedview1"
     pagecolor="#ffffff"
     bordercolor="#111111"
     borderopacity="1"
     inkscape:showpageshadow="0"
     inkscape:pageopacity="0"
     inkscape:pagecheckerboard="1"
     inkscape:deskcolor="#d1d1d1"
     inkscape:zoom="2.4425"
     inkscape:cx="200"
     inkscape:cy="200"
     inkscape:window-width="1504"
     inkscape:window-height="1212"
     inkscape:window-x="0"
     inkscape:window-y="25"
     inkscape:window-maximized="0"
     inkscape:current-layer="g1">
    <inkscape:page
       x="0"
       y="0"
       inkscape:label="1"
       id="page1"
       width="400"
       height="400"
       margin="0"
       bleed="0" />
  </sodipodi:namedview>
  <g
     id="g1"
     inkscape:groupmode="layer"
     inkscape:label="1">
    <path
       id="path1"
       d="M 0,3000 V 0 H 3000 V 3000 H 0"
       style="fill:#d0fdc9;fill-opacity:1;fill-rule:nonzero;stroke:none"
       transform="matrix(0.13333333,0,0,-0.13333333,0,400)" />
    <path
       id="path2"
       d="M 37,989.691 H 2977.93"
       style="fill:none;stroke:#ffffff;stroke-width:15;stroke-linecap:round;stroke-linejoin:round;stroke-miterlimit:4;stroke-dasharray:0, 29.8571;stroke-dashoffset:0;stroke-opacity:1"
       transform="matrix(0.13333333,0,0,-0.13333333,0,400)" />
    <path
       id="path3"
       d="m 7.14453,989.691 v 0 m 2985.71547,0 v 0"
       style="fill:none;stroke:#ffffff;stroke-width:15;stroke-linecap:round;stroke-linejoin:round;stroke-miterlimit:4;stroke-dasharray:none;stroke-opacity:1"
       transform="matrix(0.13333333,0,0,-0.13333333,0,400)" />
    <path
       id="path4"
       d="M 37,618.199 H 2977.93"
       style="fill:none;stroke:#ffffff;stroke-width:15;stroke-linecap:round;stroke-linejoin:round;stroke-miterlimit:4;stroke-dasharray:0, 29.8571;stroke-dashoffset:0;stroke-opacity:1"
       transform="matrix(0.13333333,0,0,-0.13333333,0,400)" />
    <path
       id="path5"
       d="m 7.14453,618.199 v 0 m 2985.71547,0 v 0"
       style="fill:none;stroke:#ffffff;stroke-width:15;stroke-linecap:round;stroke-linejoin:round;stroke-miterlimit:4;stroke-dasharray:none;stroke-opacity:1"
       transform="matrix(0.13333333,0,0,-0.13333333,0,400)" />
    <path
       id="path6"
       d="M 37,1972.5 H 2977.93"
       style="fill:none;stroke:#ffffff;stroke-width:15;stroke-linecap:round;stroke-linejoin:round;stroke-miterlimit:4;stroke-dasharray:0, 29.8571;stroke-dashoffset:0;stroke-opacity:1"
       transform="matrix(0.13333333,0,0,-0.13333333,0,400)" />
    <path
       id="path7"
       d="m 7.14453,1972.5 v 0 m 2985.71547,0 v 0"
       style="fill:none;stroke:#ffffff;stroke-width:15;stroke-linecap:round;stroke-linejoin:round;stroke-miterlimit:4;stroke-dasharray:none;stroke-opacity:1"
       transform="matrix(0.13333333,0,0,-0.13333333,0,400)" />
    <path
       id="path8"
       d="M 37,2381.8 H 2977.93"
       style="fill:none;stroke:#ffffff;stroke-width:15;stroke-linecap:round;stroke-linejoin:round;stroke-miterlimit:4;stroke-dasharray:0, 29.8571;stroke-dashoffset:0;stroke-opacity:1"
       transform="matrix(0.13333333,0,0,-0.13333333,0,400)" />
    <path
       id="path9"
       d="m 7.14453,2381.8 v 0 m 2985.71547,0 v 0"
       style="fill:none;stroke:#ffffff;stroke-width:15;stroke-linecap:round;stroke-linejoin:round;stroke-miterlimit:4;stroke-dasharray:none;stroke-opacity:1"
       transform="matrix(0.13333333,0,0,-0.13333333,0,400)" />
    <path
       id="path10"
       d="m 1715.77,988.172 h 621.24 L 2121.25,2383.17 H 1379.11 L 398.891,988.172 h 491.043 l 148.796,215.758 h 645.42 z m -479.88,531.958 357.12,518.94 55.8,-518.94 z"
       style="fill:#142713;fill-opacity:1;fill-rule:nonzero;stroke:none"
       transform="matrix(0.13333333,0,0,-0.13333333,0,400)" />
  </g>
</svg>
