<?xml version="1.0" encoding="UTF-8" standalone="no"?>
<!-- Created with Inkscape (http://www.inkscape.org/) -->

<svg
   version="1.1"
   id="svg1"
   width="1600"
   height="1200"
   viewBox="0 0 1600 1200"
   sodipodi:docname="FCB_Slogans_5.svg"
   inkscape:version="1.3.2 (091e20e, 2023-11-25)"
   xmlns:inkscape="http://www.inkscape.org/namespaces/inkscape"
   xmlns:sodipodi="http://sodipodi.sourceforge.net/DTD/sodipodi-0.dtd"
   xmlns="http://www.w3.org/2000/svg"
   xmlns:svg="http://www.w3.org/2000/svg">
  <defs
     id="defs1" />
  <sodipodi:namedview
     id="namedview1"
     pagecolor="#ffffff"
     bordercolor="#111111"
     borderopacity="1"
     inkscape:showpageshadow="0"
     inkscape:pageopacity="0"
     inkscape:pagecheckerboard="1"
     inkscape:deskcolor="#d1d1d1"
     inkscape:zoom="0.40125"
     inkscape:cx="800"
     inkscape:cy="599.37695"
     inkscape:window-width="1408"
     inkscape:window-height="1212"
     inkscape:window-x="0"
     inkscape:window-y="25"
     inkscape:window-maximized="0"
     inkscape:current-layer="g1">
    <inkscape:page
       x="0"
       y="0"
       inkscape:label="1"
       id="page1"
       width="1600"
       height="1200"
       margin="0"
       bleed="0" />
  </sodipodi:namedview>
  <g
     id="g1"
     inkscape:groupmode="layer"
     inkscape:label="1">
    <path
       id="path1"
       d="M 0,9000 V 0 H 12000 V 9000 H 0"
       style="fill:#f0f0f0;fill-opacity:1;fill-rule:nonzero;stroke:none"
       transform="matrix(0.13333333,0,0,-0.13333333,0,1200)" />
    <path
       id="path2"
       d="M -3.7851797,-0.00136719 H 24.644508 L 40.605445,-59.638086 42.843727,-15.118555 67.898414,-57.82168 52.499977,-0.00136719 H 81.05857 L 109.20701,-105.00137 H 78.257789 l -22.253906,38.917972 -1.265625,-38.917972 h -30.375 z M 115.6406,2.0962891 c 10.64063,0 17.63672,-4.6171875 22.39453,-15.6796871 l 1.26563,13.58203081 h 20.15625 L 179.34373,-74.204492 h -20.02735 l -9.79687,14.285156 c 0.28125,-11.203125 -5.88281,-17.085937 -18.19922,-17.085937 -14.28516,0 -21.84375,7.558593 -25.75781,22.125 L 97.722633,-25.47793 C 93.234352,-8.2630859 99.679664,2.0962891 115.6406,2.0962891 Z m 16.52344,-23.3789061 c -4.48828,0 -7.00781,-2.519531 -6.02344,-6.574219 l 5.60156,-20.730469 c 0.83204,-3.492187 3.22266,-5.179687 7.27735,-5.179687 4.75781,0 7.27734,2.519531 6.16406,6.726562 l -5.60156,20.578125 c -0.98438,3.363282 -3.36328,5.179688 -7.41797,5.179688 z m 84.41016,7.980469 1.125,13.30078081 h 20.15625 L 266.00388,-105.00137 h -26.88281 l -11.76562,44.097659 c -0.14063,-10.359375 -6.01172,-16.101562 -17.63672,-16.101562 -13.86328,0 -21.98438,7.558593 -25.75782,22.125 l -7.83984,29.402343 c -4.48828,16.7929691 1.95703,27.5742191 18.05859,27.5742191 10.64063,0 17.4961,-4.4765625 22.39454,-15.3984371 z m -12.03516,-14.554688 5.60156,-20.730469 c 0.83203,-3.492187 3.22266,-5.179687 7.13672,-5.179687 4.75781,0 7.41797,2.519531 6.30469,6.726562 l -5.60156,20.859375 c -0.98438,3.363282 -3.36329,4.898438 -7.41797,4.898438 -4.48828,0 -7.00782,-2.519531 -6.02344,-6.574219 z m 80.49902,29.9531251 c 20.01563,0 31.07813,-7.6992188 37.10157,-25.6171871 l 1.53515,-5.601563 h -24.21094 l -1.125,4.054688 c -1.39453,3.363281 -4.19531,4.910156 -7.98046,4.910156 -5.88282,0 -8.54297,-3.222656 -7.13672,-8.261719 l 2.09765,-7.839844 h 40.1836 l 2.51953,-9.105468 c 5.46094,-19.59375 -3.08203,-31.640625 -28.5586,-31.640625 -21.70312,0 -33.60937,8.683593 -38.36718,26.179687 l -5.88282,21.5625 c -5.17968,19.042969 4.20704,31.3593751 29.82422,31.3593751 z m 3.64453,-50.9648441 c 0.97266,-3.632812 3.21094,-5.589843 7.83985,-5.589843 4.89844,0 6.85547,2.238281 5.74219,6.714843 l -0.70313,2.519532 H 287.69822 Z M 394.65232,2.0962891 c 20.44922,0 32.0625,-7.9804688 36.55078,-24.9140621 l 5.32031,-19.746094 c 5.46094,-21.28125 -4.76953,-34.441406 -30.94921,-34.441406 -20.57813,0 -31.64063,8.121093 -36.11719,24.785156 l -5.46094,19.875 c -5.74219,22.125 5.74219,34.4414061 30.65625,34.4414061 z m 2.25,-23.3789061 c -4.76953,0 -7.14844,-2.519531 -6.16406,-6.304688 l 5.60156,-21 c 0.83203,-3.492187 3.49219,-5.179687 7.41797,-5.179687 4.89844,0 7.13672,2.660156 6.16406,6.304687 l -5.74219,21.140625 c -0.84375,3.363282 -3.36328,5.039063 -7.27734,5.039063 z m 37.7959,21.28124981 h 26.87109 L 474.17869,-47.181055 c 1.2539,-4.617187 3.21094,-6.585937 6.85547,-6.585937 4.19531,0 6.02343,2.660156 4.75781,7.007812 l -12.45703,46.75781281 h 26.88281 L 513.94041,-51.388086 c 4.33593,-15.960937 -1.54688,-25.617187 -15.55078,-25.617187 -10.91016,0 -18.33985,5.882812 -22.39454,16.523437 l -1.26562,-13.722656 H 454.57322 Z M 555.5156,-20.157617 c -3.78515,13.8515623 1.39453,22.2539061 16.24219,22.2539061 12.31641,0 20.01562,-5.7421875 23.23828,-18.0585941 l 1.53516,-5.320312 h -13.71094 l 7.98047,-29.683594 h 13.57031 l 6.30469,-23.238281 H 596.9531 l 5.60156,-20.578125 h -25.61718 l -4.20703,14.976562 c -0.97266,4.066407 -2.94141,5.601563 -6.85547,5.601563 h -6.30469 l -6.29297,23.238281 h 10.64063 z m 45.08203,20.15624981 h 26.8711 L 640.0781,-47.181055 c 1.25391,-4.617187 3.21094,-6.585937 6.85547,-6.585937 4.19531,0 6.02344,2.660156 4.75781,7.007812 l -12.45703,46.75781281 h 26.88281 L 679.83982,-51.388086 c 4.19531,-15.960937 -1.54687,-25.617187 -14.84766,-25.617187 -9.65625,0 -16.52343,4.898437 -20.57812,14.003906 l 11.20312,-42.000003 H 628.73435 Z M 713.00974,2.0962891 c 20.01563,0 31.07813,-7.6992188 37.10156,-25.6171871 l 1.53516,-5.601563 h -24.21094 l -1.125,4.054688 c -1.39453,3.363281 -4.19531,4.910156 -7.98047,4.910156 -5.88281,0 -8.54296,-3.222656 -7.13671,-8.261719 l 2.09765,-7.839844 h 40.1836 l 2.51953,-9.105468 c 5.46093,-19.59375 -3.08203,-31.640625 -28.5586,-31.640625 -21.70312,0 -33.60937,8.683593 -38.36718,26.179687 l -5.88282,21.5625 c -5.17968,19.042969 4.20703,31.3593751 29.82422,31.3593751 z m 3.64453,-50.9648441 c 0.97266,-3.632812 3.21094,-5.589843 7.83985,-5.589843 4.89843,0 6.85547,2.238281 5.74218,6.714843 l -0.70312,2.519532 H 715.6699 Z M 14.701148,129.84238 c -3.785156,13.85157 1.394532,22.25391 16.242188,22.25391 12.316406,0 20.015625,-5.74219 23.238281,-18.05859 l 1.535156,-5.32032 H 42.005836 L 49.986305,99.033789 H 63.556617 L 69.861305,75.795508 H 56.138648 L 61.740211,55.217383 H 36.123023 l -4.207031,14.976562 c -0.972656,4.066407 -2.941406,5.601563 -6.855469,5.601563 h -6.304687 l -6.292969,23.238281 h 10.640625 z m 45.084961,20.15625 h 26.871094 l 12.609375,-47.17968 c 1.253902,-4.617192 3.210942,-6.585942 6.855472,-6.585942 4.19531,0 6.02343,2.660156 4.75781,7.007812 L 98.422828,149.99863 H 125.30564 L 139.0283,98.611914 c 4.19531,-15.960937 -1.54688,-25.617187 -14.84766,-25.617187 -9.65625,0 -16.52344,4.898437 -20.57812,14.003906 l 11.20312,-42 H 87.922828 Z M 157.63474,66.971289 h 27.30469 l 6.02344,-21.972656 h -27.30469 z m 4.91016,83.027341 19.875,-74.203122 h -26.88281 l -19.875,74.203122 z m 11.61914,0 h 26.87109 l 10.08985,-37.52343 c 1.95703,-7.27735 5.17968,-9.375 12.8789,-9.375 h 11.33203 l 7.28907,-27.304692 h -4.34766 c -12.73828,0 -20.57812,6.996094 -24.77344,21.140625 l -0.70312,-21.140625 h -18.76172 z m 102.47168,-13.30078 1.125,13.30078 h 20.15625 L 326.06541,44.998633 h -26.88282 l -11.76562,44.097656 c -0.14063,-10.359375 -6.01172,-16.101562 -17.63672,-16.101562 -13.86328,0 -21.98438,7.558593 -25.75781,22.125 l -7.83985,29.402343 c -4.48828,16.79297 1.95703,27.57422 18.0586,27.57422 10.64062,0 17.49609,-4.47656 22.39453,-15.39844 z m -12.03516,-14.55469 5.60157,-20.73046 c 0.83203,-3.492192 3.22265,-5.179692 7.13671,-5.179692 4.75782,0 7.41797,2.519531 6.30469,6.726562 l -5.60156,20.85938 c -0.98438,3.36328 -3.36328,4.89843 -7.41797,4.89843 -4.48828,0 -7.00781,-2.51953 -6.02344,-6.57422 z m 69.57129,55.85157 h 26.88281 l 11.20313,-42.14063 c 0.14062,10.5 6.16406,16.24219 17.77734,16.24219 13.72266,0 21.70313,-7.55859 25.62891,-22.25391 l 7.98047,-29.40234 c 4.47656,-16.804688 -1.96875,-27.445313 -18.21094,-27.445313 -10.64062,0 -17.49609,4.476562 -22.39453,15.679687 l -1.125,-12.878906 h -20.29688 z m 41.8711,-55.99219 5.44921,-20.73047 c 0.98438,-3.351562 3.36329,-5.039062 7.14844,-5.039062 4.89844,0 7.41797,2.941406 6.4336,6.585942 l -5.60157,20.71875 c -0.97265,3.64453 -3.21093,5.17968 -6.85547,5.17968 -5.03906,0 -7.69921,-2.66015 -6.57421,-6.71484 z m 71.10644,27.99609 28.14844,-104.999997 H 448.41502 L 420.2783,149.99863 Z m 34.30664,2.09766 c 10.64063,0 17.63672,-4.61719 22.39453,-15.67969 l 1.26563,13.58203 h 20.15625 l 19.88672,-74.203122 h -20.02735 l -9.79687,14.285156 c 0.28125,-11.203125 -5.88281,-17.085937 -18.19922,-17.085937 -14.28516,0 -21.84375,7.558593 -25.75781,22.125 l -7.83985,29.402343 c -4.48828,17.21484 1.95703,27.57422 17.91797,27.57422 z m 16.52344,-23.37891 c -4.48828,0 -7.00781,-2.51953 -6.02344,-6.57422 l 5.60156,-20.73046 c 0.83204,-3.492192 3.22266,-5.179692 7.27735,-5.179692 4.75781,0 7.27734,2.519531 6.16406,6.726562 l -5.60156,20.57813 c -0.98438,3.36328 -3.36328,5.17968 -7.41797,5.17968 z m 38.49902,21.28125 h 26.8711 l 12.60937,-47.17968 c 1.25391,-4.617192 3.21094,-6.585942 6.85547,-6.585942 4.19531,0 6.02344,2.660156 4.75781,7.007812 l -12.45703,46.75781 h 26.88281 l 13.72266,-51.386716 c 4.33594,-15.960937 -1.54688,-25.617187 -15.55078,-25.617187 -10.91016,0 -18.33985,5.882812 -22.39453,16.523437 l -1.26563,-13.722656 h -20.15625 z m 112.41211,2.09766 c 20.01563,0 31.07813,-7.69922 37.10156,-25.61719 l 1.53516,-5.60156 h -24.21094 l -1.125,4.05469 c -1.39453,3.36328 -4.19531,4.91015 -7.98047,4.91015 -5.88281,0 -8.54296,-3.22265 -7.13671,-8.26172 l 2.09765,-7.83984 h 40.1836 l 2.51953,-9.10547 c 5.46093,-19.593748 -3.08203,-31.640623 -28.5586,-31.640623 -21.70312,0 -33.60937,8.683593 -38.36718,26.179687 l -5.88282,21.562496 c -5.17968,19.04297 4.20703,31.35938 29.82422,31.35938 z m 3.64453,-50.96484 c 0.97266,-3.632817 3.21094,-5.589848 7.83985,-5.589848 4.89843,0 6.85547,2.238281 5.74218,6.714848 l -0.70312,2.51953 h -13.86328 z m 48.57715,28.71093 c -3.78515,13.85157 1.39453,22.25391 16.24219,22.25391 12.31641,0 20.01562,-5.74219 23.23828,-18.05859 l 1.53516,-5.32032 h -13.71094 l 7.98047,-29.683591 h 13.57031 l 6.30469,-23.238281 h -13.72266 l 5.60156,-20.578125 h -25.61718 l -4.20703,14.976562 c -0.97266,4.066407 -2.94141,5.601563 -6.85547,5.601563 h -6.30469 L 698.874,99.033789 h 10.64063 z M 39.266578,302.09629 c 20.449219,0 32.0625,-7.98047 36.550781,-24.91406 l 5.320313,-19.7461 c 5.460937,-21.28125 -4.769531,-34.4414 -30.949219,-34.4414 -20.578125,0 -31.640625,8.12109 -36.117187,24.78515 l -5.4609379,19.875 c -5.7421875,22.125 5.7421879,34.44141 30.6562499,34.44141 z m 2.25,-23.37891 c -4.769531,0 -7.148437,-2.51953 -6.164062,-6.30468 l 5.601562,-21 c 0.832031,-3.49219 3.492188,-5.17969 7.417969,-5.17969 4.898437,0 7.136719,2.66015 6.164062,6.30469 l -5.742187,21.14062 c -0.84375,3.36328 -3.363281,5.03906 -7.277344,5.03906 z m 37.798828,21.28125 H 106.1865 l 10.08984,-37.52343 c 1.95703,-7.27735 5.17969,-9.375 12.87891,-9.375 h 11.33203 l 7.28906,-27.30469 h -4.34765 c -12.73828,0 -20.57813,6.99609 -24.77344,21.14062 l -0.70313,-21.14062 H 99.190406 Z m 57.120114,0 h 20.01563 l 9.65625,-14.42578 c 0,10.78125 6.16406,16.52344 18.19922,16.52344 14.0039,0 22.125,-7.55859 26.05078,-22.25391 l 7.98047,-29.40234 c 4.47656,-16.80469 -1.96875,-27.44531 -17.36719,-27.44531 -9.23438,0 -15.82031,3.78515 -20.57813,13.16015 l 11.0625,-41.15625 h -26.88281 z m 34.30078,-27.99609 5.58985,-20.87109 c 0.98437,-3.21094 3.36328,-4.89844 7.00781,-4.89844 4.89844,0 7.41797,2.9414 6.43359,6.58594 l -5.58984,20.71875 c -0.98437,3.64453 -3.22266,5.17968 -7.00781,5.17968 -5.03906,0 -7.5586,-2.66015 -6.4336,-6.71484 z m 65.92969,-55.03125 h 27.30469 l 6.02344,-21.97266 h -27.30469 z m 4.91016,83.02734 19.875,-74.20312 h -26.88281 l -19.875,74.20312 z m 24.77344,-20.15625 c -3.78516,13.85157 1.39453,22.25391 16.24218,22.25391 12.31641,0 20.01563,-5.74219 23.23828,-18.05859 l 1.53516,-5.32032 h -13.71094 l 7.98047,-29.68359 h 13.57031 l 6.30469,-23.23828 h -13.72265 l 5.60156,-20.57813 h -25.61719 l -4.20703,14.97657 c -0.97266,4.0664 -2.94141,5.60156 -6.85547,5.60156 h -6.30469 l -6.29297,23.23828 h 10.64063 z m 66.77343,-62.87109 h 27.30469 l 6.02344,-21.97266 h -27.30469 z m 4.91016,83.02734 19.875,-74.20312 h -26.88281 l -19.875,74.20312 z m 11.61914,0 h 26.87109 l 12.60938,-47.17968 c 1.25391,-4.61719 3.21094,-6.58594 6.85547,-6.58594 4.19531,0 6.02344,2.66015 4.75781,7.00781 l -12.45703,46.75781 h 26.88281 l 13.72266,-51.38672 c 4.33594,-15.96093 -1.54688,-25.61718 -15.55078,-25.61718 -10.91016,0 -18.33985,5.88281 -22.39453,16.52343 l -1.26563,-13.72265 h -20.15625 z m 104.15039,30.79688 c 21.84375,0 33.32813,-8.1211 38.36719,-26.74219 l 21,-78.25781 h -20.02735 l -9.375,13.86328 c 0.28125,-10.92188 -6.02343,-16.66406 -18.19921,-16.66406 -14.14454,0 -22.40625,7.27734 -26.17969,21.5625 l -7.42969,27.71484 c -4.33594,16.52344 1.96875,26.88281 17.50781,26.88281 9.23438,0 15.67969,-3.35156 20.29688,-11.47265 l -3.64453,13.16015 c -1.25391,5.17969 -4.05469,7.27735 -8.10938,7.27735 -3.08203,0 -5.74219,-1.53516 -5.46094,-5.17969 h -26.88281 c -3.78515,20.4375 9.09375,27.85547 28.13672,27.85547 z m 6.30469,-59.77735 5.46094,-20.15625 c 0.83203,-3.5039 3.21093,-5.03906 7.27734,-5.03906 4.75781,0 7.27734,2.51953 6.16406,6.57422 l -5.46094,20.15625 c -1.125,3.36328 -3.36328,4.91016 -7.28906,4.91016 -4.75781,0 -7.13672,-2.53125 -6.15234,-6.44532 z m 89.31445,8.82422 c -3.78515,13.85157 1.39453,22.25391 16.24219,22.25391 12.31641,0 20.01562,-5.74219 23.23828,-18.05859 l 1.53516,-5.32032 h -13.71094 l 7.98047,-29.68359 h 13.57031 l 6.30469,-23.23828 h -13.72266 l 5.60156,-20.57813 h -25.61718 l -4.20703,14.97657 c -0.97266,4.0664 -2.94141,5.60156 -6.85547,5.60156 h -6.30469 l -6.29297,23.23828 h 10.64063 z m 45.08496,20.15625 h 26.8711 l 12.60937,-47.17968 c 1.25391,-4.61719 3.21094,-6.58594 6.85547,-6.58594 4.19531,0 6.02344,2.66015 4.75781,7.00781 l -12.45703,46.75781 h 26.88281 L 673.749,248.61191 c 4.19531,-15.96093 -1.54687,-25.61718 -14.84766,-25.61718 -9.65625,0 -16.52343,4.89843 -20.57812,14.0039 l 11.20312,-42 h -26.88281 z m 112.41211,2.09766 c 20.01563,0 31.07813,-7.69922 37.10156,-25.61719 l 1.53516,-5.60156 H 721.3447 l -1.125,4.05469 c -1.39453,3.36328 -4.19531,4.91015 -7.98047,4.91015 -5.88281,0 -8.54296,-3.22265 -7.13671,-8.26172 l 2.09765,-7.83984 h 40.1836 l 2.51953,-9.10547 c 5.46093,-19.59375 -3.08203,-31.64062 -28.5586,-31.64062 -21.70312,0 -33.60937,8.68359 -38.36718,26.17968 l -5.88282,21.5625 c -5.17968,19.04297 4.20703,31.35938 29.82422,31.35938 z m 3.64453,-50.96484 c 0.97266,-3.63282 3.21094,-5.58985 7.83985,-5.58985 4.89843,0 6.85547,2.23828 5.74218,6.71485 l -0.70312,2.51953 H 709.57908 Z M 246.53318,427.46348 c -2.66016,16.65234 6.58594,24.63281 28.41797,24.63281 25.34765,0 38.64844,-9.375 38.64844,-26.74219 0,-10.64062 -5.74219,-16.79297 -22.26563,-23.66015 l -4.19531,-1.25391 c -4.89844,-2.09766 -5.60156,-2.80078 -5.60156,-4.75781 0,-2.66016 1.95703,-4.20703 5.60156,-4.20703 4.47656,0 6.71484,2.09765 6.29297,5.17968 l -0.41016,2.09766 h 25.75781 l 0.28125,-1.25391 c 3.91407,-15.82031 -5.88281,-24.5039 -28.83984,-24.5039 -23.94141,0 -36.82031,9.52734 -36.82031,26.60156 0,10.5 5.73047,16.52344 20.85937,22.81641 l 4.33594,1.26562 c 5.32031,2.37891 6.30469,3.22266 6.30469,5.32031 0,2.80078 -2.37891,4.47657 -6.72657,4.47657 -4.61718,0 -6.57421,-2.09766 -6.15234,-5.74219 l 0.41016,-1.53516 h -25.61719 z m 90.7207,24.63281 c 10.64063,0 16.80469,-4.89844 21,-15.96094 l 1.125,13.86328 h 20.15625 l 19.88672,-74.20312 h -26.88281 l -12.45703,46.47656 c -1.26563,4.62891 -3.22266,6.44531 -7.00781,6.44531 -3.91407,0 -5.60157,-2.3789 -4.33594,-7.27734 l 12.3164,-45.64453 h -26.88281 l -13.85156,51.66797 c -4.06641,15.25781 2.37891,24.63281 16.93359,24.63281 z m 53.48731,-2.09766 h 26.87109 l 12.60938,-47.17968 c 1.2539,-4.61719 3.21093,-6.58594 6.85547,-6.58594 4.19531,0 6.02343,2.66015 4.75781,7.00781 l -12.45703,46.75781 h 26.88281 l 13.72266,-51.38672 c 4.33593,-15.96093 -1.54688,-25.61718 -15.55079,-25.61718 -10.91015,0 -18.33984,5.88281 -22.39453,16.52343 l -1.26562,-13.72265 h -20.15625 z m 103.17187,0 7.00782,-26.17968 h -26.74219 l -7.14844,26.17968 z m 0,0"
       style="fill:#ef3340;fill-opacity:1;fill-rule:nonzero;stroke:none"
       aria-label="Made on the&#10;third planet&#10;orbiting the&#10;sun."
       transform="matrix(1.3333333,0,0,1.3333333,295.168,349.46667)" />
  </g>
</svg>
