<?xml version="1.0" encoding="UTF-8" standalone="no"?>
<!-- Created with Inkscape (http://www.inkscape.org/) -->

<svg
   version="1.1"
   id="svg1"
   width="400"
   height="400"
   viewBox="0 0 400 400"
   sodipodi:docname="FCB_Library_Gorp_11.svg"
   inkscape:version="1.3.2 (091e20e, 2023-11-25)"
   xmlns:inkscape="http://www.inkscape.org/namespaces/inkscape"
   xmlns:sodipodi="http://sodipodi.sourceforge.net/DTD/sodipodi-0.dtd"
   xmlns="http://www.w3.org/2000/svg"
   xmlns:svg="http://www.w3.org/2000/svg">
  <defs
     id="defs1" />
  <sodipodi:namedview
     id="namedview1"
     pagecolor="#ffffff"
     bordercolor="#111111"
     borderopacity="1"
     inkscape:showpageshadow="0"
     inkscape:pageopacity="0"
     inkscape:pagecheckerboard="1"
     inkscape:deskcolor="#d1d1d1"
     inkscape:zoom="2.4425"
     inkscape:cx="200"
     inkscape:cy="200"
     inkscape:window-width="1504"
     inkscape:window-height="1212"
     inkscape:window-x="0"
     inkscape:window-y="25"
     inkscape:window-maximized="0"
     inkscape:current-layer="g1">
    <inkscape:page
       x="0"
       y="0"
       inkscape:label="1"
       id="page1"
       width="400"
       height="400"
       margin="0"
       bleed="0" />
  </sodipodi:namedview>
  <g
     id="g1"
     inkscape:groupmode="layer"
     inkscape:label="1">
    <path
       id="path1"
       d="M 0,3000 V 0 H 3000 V 3000 H 0"
       style="fill:#00ff00;fill-opacity:1;fill-rule:nonzero;stroke:none"
       transform="matrix(0.13333333,0,0,-0.13333333,0,400)" />
    <path
       id="path2"
       d="M 37,985.621 H 2977.93"
       style="fill:none;stroke:#ffffff;stroke-width:15;stroke-linecap:round;stroke-linejoin:round;stroke-miterlimit:4;stroke-dasharray:0, 29.8571;stroke-dashoffset:0;stroke-opacity:1"
       transform="matrix(0.13333333,0,0,-0.13333333,0,400)" />
    <path
       id="path3"
       d="m 7.14453,985.621 v 0 m 2985.71547,0 v 0"
       style="fill:none;stroke:#ffffff;stroke-width:15;stroke-linecap:round;stroke-linejoin:round;stroke-miterlimit:4;stroke-dasharray:none;stroke-opacity:1"
       transform="matrix(0.13333333,0,0,-0.13333333,0,400)" />
    <path
       id="path4"
       d="M 37,620 H 2977.93"
       style="fill:none;stroke:#ffffff;stroke-width:15;stroke-linecap:round;stroke-linejoin:round;stroke-miterlimit:4;stroke-dasharray:0, 29.8571;stroke-dashoffset:0;stroke-opacity:1"
       transform="matrix(0.13333333,0,0,-0.13333333,0,400)" />
    <path
       id="path5"
       d="m 7.14453,620 v 0 M 2992.86,620 v 0"
       style="fill:none;stroke:#ffffff;stroke-width:15;stroke-linecap:round;stroke-linejoin:round;stroke-miterlimit:4;stroke-dasharray:none;stroke-opacity:1"
       transform="matrix(0.13333333,0,0,-0.13333333,0,400)" />
    <path
       id="path6"
       d="M 37,1953.52 H 2977.93"
       style="fill:none;stroke:#ffffff;stroke-width:15;stroke-linecap:round;stroke-linejoin:round;stroke-miterlimit:4;stroke-dasharray:0, 29.8571;stroke-dashoffset:0;stroke-opacity:1"
       transform="matrix(0.13333333,0,0,-0.13333333,0,400)" />
    <path
       id="path7"
       d="m 7.14453,1953.52 v 0 m 2985.71547,0 v 0"
       style="fill:none;stroke:#ffffff;stroke-width:15;stroke-linecap:round;stroke-linejoin:round;stroke-miterlimit:4;stroke-dasharray:none;stroke-opacity:1"
       transform="matrix(0.13333333,0,0,-0.13333333,0,400)" />
    <path
       id="path8"
       d="M 37,2345 H 2977.93"
       style="fill:none;stroke:#ffffff;stroke-width:15;stroke-linecap:round;stroke-linejoin:round;stroke-miterlimit:4;stroke-dasharray:0, 29.8571;stroke-dashoffset:0;stroke-opacity:1"
       transform="matrix(0.13333333,0,0,-0.13333333,0,400)" />
    <path
       id="path9"
       d="m 7.14453,2345 v 0 m 2985.71547,0 v 0"
       style="fill:none;stroke:#ffffff;stroke-width:15;stroke-linecap:round;stroke-linejoin:round;stroke-miterlimit:4;stroke-dasharray:none;stroke-opacity:1"
       transform="matrix(0.13333333,0,0,-0.13333333,0,400)" />
    <path
       id="path10"
       d="M 13.768573,-0.00114688 H 33.479511 L 41.659198,-31.993334 h 42.035157 l 8.191406,31.99218712 H 111.5967 V -18.973803 L 76.264667,-135.7863 H 48.913105 L 13.768573,-18.973803 Z M 45.198261,-50.040209 62.682636,-119.41521 79.979511,-50.040209 Z M 211.10939,-0.00114688 h 21.19922 V -59.520678 c 0,-25.488281 -14.87109,-37.195313 -43.52344,-37.195313 h -44.63671 v 18.785157 h 42.96093 c 15.25782,0 22.51172,6.316406 22.51172,19.710937 v 1.863281 h -27.71484 c -29.01563,0 -41.66016,10.230469 -41.66016,29.941407 0,18.9726559 11.53125,28.6406246 32.91797,28.6406246 19.16016,0 31.99219,-8.3671875 37.94531,-23.4257816 z M 181.90627,-14.508959 c -11.71875,0 -17.67188,-4.839844 -17.67188,-13.945313 0,-10.054687 6.70313,-15.445312 22.13672,-15.445312 h 23.25 c 0,18.421875 -10.04297,29.390625 -27.71484,29.390625 z m 0,0"
       style="fill:#142713;fill-opacity:1;fill-rule:nonzero;stroke:none"
       aria-label="Aa"
       transform="matrix(1.3333333,0,0,1.3333333,33.098933,268.33747)" />
  </g>
</svg>
