<?xml version="1.0" encoding="UTF-8" standalone="no"?>
<!-- Created with Inkscape (http://www.inkscape.org/) -->

<svg
   version="1.1"
   id="svg1"
   width="400"
   height="400"
   viewBox="0 0 400 400"
   sodipodi:docname="FCB_Library_Gorp_14.svg"
   inkscape:version="1.3.2 (091e20e, 2023-11-25)"
   xmlns:inkscape="http://www.inkscape.org/namespaces/inkscape"
   xmlns:sodipodi="http://sodipodi.sourceforge.net/DTD/sodipodi-0.dtd"
   xmlns="http://www.w3.org/2000/svg"
   xmlns:svg="http://www.w3.org/2000/svg">
  <defs
     id="defs1" />
  <sodipodi:namedview
     id="namedview1"
     pagecolor="#ffffff"
     bordercolor="#111111"
     borderopacity="1"
     inkscape:showpageshadow="0"
     inkscape:pageopacity="0"
     inkscape:pagecheckerboard="1"
     inkscape:deskcolor="#d1d1d1"
     inkscape:zoom="2.4425"
     inkscape:cx="200"
     inkscape:cy="200"
     inkscape:window-width="1504"
     inkscape:window-height="1212"
     inkscape:window-x="0"
     inkscape:window-y="25"
     inkscape:window-maximized="0"
     inkscape:current-layer="g1">
    <inkscape:page
       x="0"
       y="0"
       inkscape:label="1"
       id="page1"
       width="400"
       height="400"
       margin="0"
       bleed="0" />
  </sodipodi:namedview>
  <g
     id="g1"
     inkscape:groupmode="layer"
     inkscape:label="1">
    <path
       id="path1"
       d="M 0,3000 V 0 H 3000 V 3000 H 0"
       style="fill:#00ff00;fill-opacity:1;fill-rule:nonzero;stroke:none"
       transform="matrix(0.13333333,0,0,-0.13333333,0,400)" />
    <path
       id="path2"
       d="M 37,985.621 H 2977.93"
       style="fill:none;stroke:#ffffff;stroke-width:15;stroke-linecap:round;stroke-linejoin:round;stroke-miterlimit:4;stroke-dasharray:0, 29.8571;stroke-dashoffset:0;stroke-opacity:1"
       transform="matrix(0.13333333,0,0,-0.13333333,0,400)" />
    <path
       id="path3"
       d="m 7.14453,985.621 v 0 m 2985.71547,0 v 0"
       style="fill:none;stroke:#ffffff;stroke-width:15;stroke-linecap:round;stroke-linejoin:round;stroke-miterlimit:4;stroke-dasharray:none;stroke-opacity:1"
       transform="matrix(0.13333333,0,0,-0.13333333,0,400)" />
    <path
       id="path4"
       d="M 37,620 H 2977.93"
       style="fill:none;stroke:#ffffff;stroke-width:15;stroke-linecap:round;stroke-linejoin:round;stroke-miterlimit:4;stroke-dasharray:0, 29.8571;stroke-dashoffset:0;stroke-opacity:1"
       transform="matrix(0.13333333,0,0,-0.13333333,0,400)" />
    <path
       id="path5"
       d="m 7.14453,620 v 0 M 2992.86,620 v 0"
       style="fill:none;stroke:#ffffff;stroke-width:15;stroke-linecap:round;stroke-linejoin:round;stroke-miterlimit:4;stroke-dasharray:none;stroke-opacity:1"
       transform="matrix(0.13333333,0,0,-0.13333333,0,400)" />
    <path
       id="path6"
       d="M 37,1953.52 H 2977.93"
       style="fill:none;stroke:#ffffff;stroke-width:15;stroke-linecap:round;stroke-linejoin:round;stroke-miterlimit:4;stroke-dasharray:0, 29.8571;stroke-dashoffset:0;stroke-opacity:1"
       transform="matrix(0.13333333,0,0,-0.13333333,0,400)" />
    <path
       id="path7"
       d="m 7.14453,1953.52 v 0 m 2985.71547,0 v 0"
       style="fill:none;stroke:#ffffff;stroke-width:15;stroke-linecap:round;stroke-linejoin:round;stroke-miterlimit:4;stroke-dasharray:none;stroke-opacity:1"
       transform="matrix(0.13333333,0,0,-0.13333333,0,400)" />
    <path
       id="path8"
       d="M 37,2345 H 2977.93"
       style="fill:none;stroke:#ffffff;stroke-width:15;stroke-linecap:round;stroke-linejoin:round;stroke-miterlimit:4;stroke-dasharray:0, 29.8571;stroke-dashoffset:0;stroke-opacity:1"
       transform="matrix(0.13333333,0,0,-0.13333333,0,400)" />
    <path
       id="path9"
       d="m 7.14453,2345 v 0 m 2985.71547,0 v 0"
       style="fill:none;stroke:#ffffff;stroke-width:15;stroke-linecap:round;stroke-linejoin:round;stroke-miterlimit:4;stroke-dasharray:none;stroke-opacity:1"
       transform="matrix(0.13333333,0,0,-0.13333333,0,400)" />
    <path
       id="path10"
       d="M 5.7646672,-0.00114688 H 25.475605 L 38.870136,-27.340991 H 77.92873 v 27.33984412 h 27.16406 V -135.7863 H 69.010761 L 5.7646672,-23.438647 Z M 49.850605,-49.665209 77.92873,-107.13396 v 57.468751 z M 165.53517,2.4129156 c 17.10938,0 29.01563,-7.9921875 37.57032,-28.0781246 l -7.06641,25.66406212 h 24.36328 L 246.26564,-96.715991 h -43.71093 c -40.1836,0 -68.82422,28.265625 -68.82422,64.722657 0,22.6874996 11.53125,34.4062496 31.80468,34.4062496 z m 12.46875,-23.6132816 c -9.11718,0 -14.69531,-4.839843 -14.69531,-15.820312 0,-18.960938 15.4336,-36.082031 36.82031,-36.082031 h 11.53125 l -2.03906,7.816406 -2.97656,10.96875 c -5.95313,22.699219 -15.43359,33.117187 -28.64063,33.117187 z m 0,0"
       style="fill:#142713;fill-opacity:1;fill-rule:nonzero;stroke:none"
       aria-label="Aa"
       transform="matrix(1.3333333,0,0,1.3333333,33.098933,268.33747)" />
  </g>
</svg>
