<?xml version="1.0" encoding="UTF-8" standalone="no"?>
<!-- Created with Inkscape (http://www.inkscape.org/) -->

<svg
   version="1.1"
   id="svg2"
   width="400"
   height="400"
   viewBox="0 0 400 400"
   sodipodi:docname="FCB_Library_Gorp_12.eps"
   xmlns:inkscape="http://www.inkscape.org/namespaces/inkscape"
   xmlns:sodipodi="http://sodipodi.sourceforge.net/DTD/sodipodi-0.dtd"
   xmlns="http://www.w3.org/2000/svg"
   xmlns:svg="http://www.w3.org/2000/svg">
  <defs
     id="defs6" />
  <sodipodi:namedview
     id="namedview4"
     pagecolor="#ffffff"
     bordercolor="#000000"
     borderopacity="0.25"
     inkscape:showpageshadow="2"
     inkscape:pageopacity="0.0"
     inkscape:pagecheckerboard="0"
     inkscape:deskcolor="#d1d1d1" />
  <g
     id="g8"
     inkscape:groupmode="layer"
     inkscape:label="ink_ext_XXXXXX"
     transform="matrix(1.3333333,0,0,-1.3333333,0,400)">
    <g
       id="g10"
       transform="scale(0.1)">
      <path
         d="M 0,3000 V 0 H 3000 V 3000 H 0"
         style="fill:#00ff00;fill-opacity:1;fill-rule:nonzero;stroke:none"
         id="path12" />
      <path
         d="M 37,985.621 H 2977.93"
         style="fill:none;stroke:#ffffff;stroke-width:15;stroke-linecap:round;stroke-linejoin:round;stroke-miterlimit:4;stroke-dasharray:0, 29.8571;stroke-dashoffset:0;stroke-opacity:1"
         id="path14" />
      <path
         d="m 7.14453,985.621 v 0 m 2985.71547,0 v 0"
         style="fill:none;stroke:#ffffff;stroke-width:15;stroke-linecap:round;stroke-linejoin:round;stroke-miterlimit:4;stroke-dasharray:none;stroke-opacity:1"
         id="path16" />
      <path
         d="M 37,620 H 2977.93"
         style="fill:none;stroke:#ffffff;stroke-width:15;stroke-linecap:round;stroke-linejoin:round;stroke-miterlimit:4;stroke-dasharray:0, 29.8571;stroke-dashoffset:0;stroke-opacity:1"
         id="path18" />
      <path
         d="m 7.14453,620 v 0 M 2992.86,620 v 0"
         style="fill:none;stroke:#ffffff;stroke-width:15;stroke-linecap:round;stroke-linejoin:round;stroke-miterlimit:4;stroke-dasharray:none;stroke-opacity:1"
         id="path20" />
      <path
         d="M 37,1953.52 H 2977.93"
         style="fill:none;stroke:#ffffff;stroke-width:15;stroke-linecap:round;stroke-linejoin:round;stroke-miterlimit:4;stroke-dasharray:0, 29.8571;stroke-dashoffset:0;stroke-opacity:1"
         id="path22" />
      <path
         d="m 7.14453,1953.52 v 0 m 2985.71547,0 v 0"
         style="fill:none;stroke:#ffffff;stroke-width:15;stroke-linecap:round;stroke-linejoin:round;stroke-miterlimit:4;stroke-dasharray:none;stroke-opacity:1"
         id="path24" />
      <path
         d="M 37,2345 H 2977.93"
         style="fill:none;stroke:#ffffff;stroke-width:15;stroke-linecap:round;stroke-linejoin:round;stroke-miterlimit:4;stroke-dasharray:0, 29.8571;stroke-dashoffset:0;stroke-opacity:1"
         id="path26" />
      <path
         d="m 7.14453,2345 v 0 m 2985.71547,0 v 0"
         style="fill:none;stroke:#ffffff;stroke-width:15;stroke-linecap:round;stroke-linejoin:round;stroke-miterlimit:4;stroke-dasharray:none;stroke-opacity:1"
         id="path28" />
      <path
         d="M 307.762,987.469 H 549.563 L 1113.14,2231.81 H 981.082 V 987.469 H 1314.02 V 2345.27 H 891.801 L 307.762,1275.77 Z M 560.723,1225.55 H 1180.1 v 273.42 H 560.723 Z M 1899.9,963.289 c 206.46,0 325.5,124.621 405.48,435.241 l 72.54,267.84 -59.52,3.72 -42.78,-159.96 c -44.64,-165.54 -117.18,-258.54 -221.34,-258.54 -63.24,0 -98.58,33.48 -100.44,115.32 0,156.24 122.76,299.46 284.58,299.46 h 251.1 v 288.3 h -219.48 c -392.46,0 -678.9,-279 -678.9,-649.14 0,-223.2 107.88,-342.241 308.76,-342.241 z m 284.58,24.18 h 295.74 l 258.54,967.201 h -344.1 l -171.12,-641.7 h 48.36 l -87.42,-325.501"
         style="fill:#142713;fill-opacity:1;fill-rule:nonzero;stroke:none"
         id="path30" />
    </g>
  </g>
</svg>
