<?xml version="1.0" encoding="UTF-8" standalone="no"?>
<svg
   xmlns:dc="http://purl.org/dc/elements/1.1/"
   xmlns:cc="http://creativecommons.org/ns#"
   xmlns:rdf="http://www.w3.org/1999/02/22-rdf-syntax-ns#"
   xmlns:svg="http://www.w3.org/2000/svg"
   xmlns="http://www.w3.org/2000/svg"
   viewBox="0 0 400 400"
   height="400"
   width="400"
   xml:space="preserve"
   id="svg2"
   version="1.1"><metadata
     id="metadata8"><rdf:RDF><cc:Work
         rdf:about=""><dc:format>image/svg+xml</dc:format><dc:type
           rdf:resource="http://purl.org/dc/dcmitype/StillImage" /></cc:Work></rdf:RDF></metadata><defs
     id="defs6" /><g
     transform="matrix(1.3333333,0,0,-1.3333333,0,400)"
     id="g10"><g
       transform="scale(0.1)"
       id="g12"><path
         id="path14"
         style="fill:#ffdfc6;fill-opacity:1;fill-rule:nonzero;stroke:none"
         d="M 0,3000 V 0 H 3000 V 3000 H 0" /><path
         id="path16"
         style="fill:none;stroke:#ffffff;stroke-width:15;stroke-linecap:round;stroke-linejoin:round;stroke-miterlimit:4;stroke-dasharray:0, 30.1122;stroke-dashoffset:0;stroke-opacity:1"
         d="M 37.2422,1001.09 H 2973.19" /><path
         id="path18"
         style="fill:none;stroke:#ffffff;stroke-width:15;stroke-linecap:round;stroke-linejoin:round;stroke-miterlimit:4;stroke-dasharray:none;stroke-opacity:1"
         d="m 7.13281,1001.09 v 0 m 2981.10719,0 v 0" /><path
         id="path20"
         style="fill:none;stroke:#ffffff;stroke-width:15;stroke-linecap:round;stroke-linejoin:round;stroke-miterlimit:4;stroke-dasharray:0, 30.1122;stroke-dashoffset:0;stroke-opacity:1"
         d="M 37.2422,598.832 H 2973.19" /><path
         id="path22"
         style="fill:none;stroke:#ffffff;stroke-width:15;stroke-linecap:round;stroke-linejoin:round;stroke-miterlimit:4;stroke-dasharray:none;stroke-opacity:1"
         d="m 7.13281,598.832 v 0 m 2981.10719,0 v 0" /><path
         id="path24"
         style="fill:none;stroke:#ffffff;stroke-width:15;stroke-linecap:round;stroke-linejoin:round;stroke-miterlimit:4;stroke-dasharray:0, 30.1122;stroke-dashoffset:0;stroke-opacity:1"
         d="M 41.8711,2002.42 H 2977.81" /><path
         id="path26"
         style="fill:none;stroke:#ffffff;stroke-width:15;stroke-linecap:round;stroke-linejoin:round;stroke-miterlimit:4;stroke-dasharray:none;stroke-opacity:1"
         d="m 11.7578,2002.42 v 0 m 2981.1122,0 v 0" /><path
         id="path28"
         style="fill:none;stroke:#ffffff;stroke-width:15;stroke-linecap:round;stroke-linejoin:round;stroke-miterlimit:4;stroke-dasharray:0, 30.1122;stroke-dashoffset:0;stroke-opacity:1"
         d="M 37.2422,2302.66 H 2973.19" /><path
         id="path30"
         style="fill:none;stroke:#ffffff;stroke-width:15;stroke-linecap:round;stroke-linejoin:round;stroke-miterlimit:4;stroke-dasharray:none;stroke-opacity:1"
         d="m 7.13281,2302.66 v 0 m 2981.10719,0 v 0" /><path
         id="path32"
         style="fill:none;stroke:#ffffff;stroke-width:15;stroke-linecap:round;stroke-linejoin:round;stroke-miterlimit:4;stroke-dasharray:0, 30.1122;stroke-dashoffset:0;stroke-opacity:1"
         d="M 37.2422,2401.09 H 2973.19" /><path
         id="path34"
         style="fill:none;stroke:#ffffff;stroke-width:15;stroke-linecap:round;stroke-linejoin:round;stroke-miterlimit:4;stroke-dasharray:none;stroke-opacity:1"
         d="m 7.13281,2401.09 v 0 m 2981.10719,0 v 0" /><path
         id="path36"
         style="fill:#000000;fill-opacity:1;fill-rule:nonzero;stroke:none"
         d="m 1303.5,1000.39 h 259.6 L 1303.5,2302.1 H 1043.9 L 784.301,1000.39 H 1043.9 l 51.92,261.46 h 155.76 z m -129.8,652.71 25.96,-129.8 h -51.92 z m 1055.08,-652.71 v 700.92 c 0,43.26 -7.42,83.12 -22.25,119.6 -14.84,36.45 -35.87,68.29 -63.05,95.5 -27.2,27.17 -59.05,48.21 -95.49,63.04 -36.48,14.84 -76.35,22.25 -119.61,22.25 -43.28,0 -83.15,-7.41 -119.6,-22.25 -36.47,-14.83 -68.31,-35.87 -95.49,-63.04 -27.21,-27.21 -48.21,-59.05 -63.05,-95.5 -14.83,-36.48 -22.25,-76.34 -22.25,-119.6 h 200.26 c 0,28.42 9.56,52.21 28.75,71.39 19.15,19.15 42.93,28.74 71.38,28.74 28.43,0 52.21,-9.59 71.39,-28.74 19.16,-19.18 28.75,-42.97 28.75,-71.39 v -100.13 h -100.14 c -43.28,0 -83.15,-7.42 -119.6,-22.25 -36.47,-14.84 -68.31,-35.87 -95.49,-63.05 -27.21,-27.2 -48.21,-59.05 -63.05,-95.49 -14.83,-36.48 -22.25,-76.35 -22.25,-119.6 0,-43.29 7.42,-83.16 22.25,-119.61 14.84,-36.47 35.84,-68.31 63.05,-95.49 27.18,-27.21 59.02,-48.21 95.49,-63.05 36.45,-14.83 76.32,-22.25 119.6,-22.25 16.06,0 31.82,0.93 47.29,2.78 15.44,1.86 33.06,5.86 52.85,12.06 v -14.84 z M 1857,1372.17 c 19.15,19.16 42.93,28.75 71.38,28.75 h 100.14 v -100.13 c 0,-28.46 -9.91,-52.24 -29.67,-71.39 -19.79,-19.18 -43.29,-28.75 -70.47,-28.75 -28.45,0 -52.23,9.57 -71.38,28.75 -19.19,19.15 -28.75,42.93 -28.75,71.39 0,28.42 9.56,52.2 28.75,71.38" /></g></g></svg>