<?xml version="1.0" encoding="UTF-8" standalone="no"?>
<!DOCTYPE svg PUBLIC "-//W3C//DTD SVG 1.1//EN" "http://www.w3.org/Graphics/SVG/1.1/DTD/svg11.dtd">
<svg width="100%" height="100%" viewBox="0 0 1250 1250" version="1.1" xmlns="http://www.w3.org/2000/svg" xmlns:xlink="http://www.w3.org/1999/xlink" xml:space="preserve" xmlns:affinity="https://www.affinity.studio/" style="fill-rule:evenodd;clip-rule:evenodd;stroke-linecap:round;">
    <clipPath id="_clip1">
        <rect x="0" y="0" width="1250" height="1250"/>
    </clipPath>
    <g clip-path="url(#_clip1)">
        <g id="Layer-1" affinity:id="Layer 1">
        </g>
        <g id="header">
        </g>
    </g>
    <g id="Layer-11" affinity:id="Layer 1" transform="matrix(4.166667,0,0,4.166667,0,0)">
        <g transform="matrix(1,-0,0,1,146.589587,80.535714)">
            <rect x="-146.59" y="-80.536" width="300" height="300" style="fill:#98e2ff;"/>
        </g>
        <g transform="matrix(1,0,0,1,300,150)">
            <g transform="matrix(1,0,0,1,157.142857,-65939.606591)">
                <path d="M-456.429,65993.757L-157.857,65993.757" style="fill:none;fill-rule:nonzero;stroke:#fff;stroke-width:1.5px;stroke-dasharray:0,3.64;"/>
            </g>
            <g transform="matrix(1,0,0,1,157.142857,-65914.742857)">
                <path d="M-456.429,65993.893L-157.857,65993.893" style="fill:none;fill-rule:nonzero;stroke:#fff;stroke-width:1.5px;stroke-dasharray:0,3.64;"/>
            </g>
            <g transform="matrix(1,0,0,1,157.142857,-66037.945885)">
                <path d="M-456.429,65993.396L-157.857,65993.396" style="fill:none;fill-rule:nonzero;stroke:#fff;stroke-width:1.5px;stroke-dasharray:0,3.64;"/>
            </g>
            <g transform="matrix(1,0,0,1,157.142857,-66070.663386)">
                <path d="M-456.429,65993.25L-157.857,65993.25" style="fill:none;fill-rule:nonzero;stroke:#fff;stroke-width:1.5px;stroke-dasharray:0,3.64;"/>
            </g>
        </g>
        <g transform="matrix(1,0,0,1,146.589587,73.428571)">
            <g transform="matrix(0.24,0,0,0.24,-111.408086,-8.821429)">
                <g transform="matrix(775,0,0,775,164.701916,595.286342)">
                    <path d="M0.041,-0.009C0.049,-0.009 0.056,-0.011 0.061,-0.017C0.066,-0.022 0.068,-0.028 0.068,-0.035C0.068,-0.044 0.066,-0.05 0.061,-0.056C0.056,-0.061 0.049,-0.063 0.041,-0.063C0.033,-0.063 0.027,-0.061 0.021,-0.056C0.016,-0.05 0.014,-0.044 0.014,-0.035C0.014,-0.028 0.016,-0.022 0.021,-0.017C0.027,-0.011 0.033,-0.009 0.041,-0.009ZM0.195,-0.644C0.204,-0.644 0.21,-0.646 0.215,-0.651C0.22,-0.657 0.223,-0.663 0.223,-0.67C0.223,-0.678 0.22,-0.685 0.215,-0.69C0.21,-0.696 0.204,-0.698 0.195,-0.698C0.188,-0.698 0.181,-0.696 0.176,-0.69C0.171,-0.685 0.168,-0.678 0.168,-0.67C0.168,-0.663 0.171,-0.657 0.176,-0.651C0.181,-0.646 0.188,-0.644 0.195,-0.644ZM0.067,-0.118C0.076,-0.118 0.083,-0.121 0.087,-0.126C0.092,-0.131 0.095,-0.137 0.095,-0.145C0.095,-0.153 0.092,-0.16 0.087,-0.165C0.083,-0.17 0.076,-0.173 0.067,-0.173C0.06,-0.173 0.053,-0.17 0.048,-0.165C0.043,-0.16 0.04,-0.153 0.04,-0.145C0.04,-0.137 0.043,-0.131 0.048,-0.126C0.053,-0.121 0.06,-0.118 0.067,-0.118ZM0.05,-0.06C0.058,-0.06 0.065,-0.062 0.07,-0.067C0.075,-0.073 0.077,-0.079 0.077,-0.086C0.077,-0.094 0.075,-0.101 0.07,-0.106C0.065,-0.112 0.058,-0.114 0.05,-0.114C0.042,-0.114 0.035,-0.112 0.03,-0.106C0.025,-0.101 0.022,-0.094 0.022,-0.086C0.022,-0.079 0.025,-0.073 0.03,-0.067C0.035,-0.062 0.042,-0.06 0.05,-0.06ZM0.089,-0.177C0.097,-0.177 0.104,-0.179 0.109,-0.185C0.114,-0.19 0.116,-0.196 0.116,-0.203C0.116,-0.212 0.114,-0.218 0.109,-0.224C0.104,-0.229 0.097,-0.231 0.089,-0.231C0.081,-0.231 0.075,-0.229 0.069,-0.224C0.064,-0.218 0.062,-0.212 0.062,-0.203C0.062,-0.196 0.064,-0.19 0.069,-0.185C0.075,-0.179 0.081,-0.177 0.089,-0.177ZM0.071,-0.144C0.08,-0.144 0.086,-0.146 0.091,-0.151C0.096,-0.157 0.099,-0.163 0.099,-0.17C0.099,-0.178 0.096,-0.185 0.091,-0.19C0.086,-0.196 0.08,-0.198 0.071,-0.198C0.063,-0.198 0.057,-0.196 0.052,-0.19C0.047,-0.185 0.044,-0.178 0.044,-0.17C0.044,-0.163 0.047,-0.157 0.052,-0.151C0.057,-0.146 0.063,-0.144 0.071,-0.144ZM0.146,-0.537C0.155,-0.537 0.162,-0.54 0.167,-0.545C0.171,-0.55 0.174,-0.556 0.174,-0.563C0.174,-0.572 0.171,-0.579 0.167,-0.584C0.162,-0.589 0.155,-0.592 0.146,-0.592C0.139,-0.592 0.132,-0.589 0.127,-0.584C0.122,-0.579 0.119,-0.572 0.119,-0.563C0.119,-0.556 0.122,-0.55 0.127,-0.545C0.132,-0.54 0.139,-0.537 0.146,-0.537ZM0.167,-0.582C0.175,-0.582 0.182,-0.585 0.187,-0.59C0.192,-0.595 0.194,-0.601 0.194,-0.608C0.194,-0.617 0.192,-0.624 0.187,-0.629C0.182,-0.634 0.175,-0.637 0.167,-0.637C0.159,-0.637 0.153,-0.634 0.147,-0.629C0.142,-0.624 0.14,-0.617 0.14,-0.608C0.14,-0.601 0.142,-0.595 0.147,-0.59C0.153,-0.585 0.159,-0.582 0.167,-0.582ZM0.175,-0.617C0.183,-0.617 0.19,-0.62 0.195,-0.625C0.2,-0.63 0.202,-0.636 0.202,-0.644C0.202,-0.652 0.2,-0.659 0.195,-0.664C0.19,-0.669 0.183,-0.672 0.175,-0.672C0.167,-0.672 0.16,-0.669 0.155,-0.664C0.15,-0.659 0.147,-0.652 0.147,-0.644C0.147,-0.636 0.15,-0.63 0.155,-0.625C0.16,-0.62 0.167,-0.617 0.175,-0.617ZM0.104,-0.271C0.112,-0.271 0.119,-0.274 0.124,-0.279C0.128,-0.285 0.131,-0.291 0.131,-0.298C0.131,-0.306 0.128,-0.313 0.124,-0.318C0.119,-0.324 0.112,-0.326 0.104,-0.326C0.096,-0.326 0.089,-0.324 0.084,-0.318C0.079,-0.313 0.076,-0.306 0.076,-0.298C0.076,-0.291 0.079,-0.285 0.084,-0.279C0.089,-0.274 0.096,-0.271 0.104,-0.271ZM0.084,-0.222C0.092,-0.222 0.099,-0.224 0.104,-0.229C0.109,-0.235 0.111,-0.241 0.111,-0.248C0.111,-0.257 0.109,-0.263 0.104,-0.269C0.099,-0.274 0.092,-0.276 0.084,-0.276C0.076,-0.276 0.07,-0.274 0.064,-0.269C0.059,-0.263 0.057,-0.257 0.057,-0.248C0.057,-0.241 0.059,-0.235 0.064,-0.229C0.07,-0.224 0.076,-0.222 0.084,-0.222ZM0.127,-0.366C0.135,-0.366 0.142,-0.369 0.147,-0.374C0.152,-0.379 0.154,-0.385 0.154,-0.393C0.154,-0.401 0.152,-0.408 0.147,-0.413C0.142,-0.418 0.135,-0.421 0.127,-0.421C0.119,-0.421 0.113,-0.418 0.107,-0.413C0.102,-0.408 0.1,-0.401 0.1,-0.393C0.1,-0.385 0.102,-0.379 0.107,-0.374C0.113,-0.369 0.119,-0.366 0.127,-0.366ZM0.12,-0.326C0.129,-0.326 0.135,-0.329 0.14,-0.334C0.145,-0.339 0.147,-0.345 0.147,-0.353C0.147,-0.361 0.145,-0.368 0.14,-0.373C0.135,-0.378 0.129,-0.381 0.12,-0.381C0.112,-0.381 0.106,-0.378 0.101,-0.373C0.095,-0.368 0.093,-0.361 0.093,-0.353C0.093,-0.345 0.095,-0.339 0.101,-0.334C0.106,-0.329 0.112,-0.326 0.12,-0.326ZM0.145,-0.449C0.153,-0.449 0.16,-0.452 0.165,-0.457C0.169,-0.462 0.172,-0.468 0.172,-0.476C0.172,-0.484 0.169,-0.491 0.165,-0.496C0.16,-0.501 0.153,-0.504 0.145,-0.504C0.137,-0.504 0.13,-0.501 0.125,-0.496C0.12,-0.491 0.117,-0.484 0.117,-0.476C0.117,-0.468 0.12,-0.462 0.125,-0.457C0.13,-0.452 0.137,-0.449 0.145,-0.449ZM0.136,-0.399C0.144,-0.399 0.151,-0.402 0.156,-0.407C0.161,-0.412 0.163,-0.419 0.163,-0.426C0.163,-0.434 0.161,-0.441 0.156,-0.446C0.151,-0.451 0.144,-0.454 0.136,-0.454C0.128,-0.454 0.121,-0.451 0.116,-0.446C0.111,-0.441 0.108,-0.434 0.108,-0.426C0.108,-0.419 0.111,-0.412 0.116,-0.407C0.121,-0.402 0.128,-0.399 0.136,-0.399ZM0.151,-0.491C0.16,-0.491 0.167,-0.494 0.171,-0.499C0.176,-0.504 0.179,-0.51 0.179,-0.518C0.179,-0.526 0.176,-0.533 0.171,-0.538C0.167,-0.543 0.16,-0.546 0.151,-0.546C0.144,-0.546 0.137,-0.543 0.132,-0.538C0.127,-0.533 0.124,-0.526 0.124,-0.518C0.124,-0.51 0.127,-0.504 0.132,-0.499C0.137,-0.494 0.144,-0.491 0.151,-0.491ZM0.354,-0.019C0.363,-0.019 0.37,-0.021 0.375,-0.026C0.379,-0.032 0.382,-0.038 0.382,-0.045C0.382,-0.053 0.379,-0.06 0.375,-0.065C0.37,-0.071 0.363,-0.073 0.354,-0.073C0.347,-0.073 0.34,-0.071 0.335,-0.065C0.33,-0.06 0.327,-0.053 0.327,-0.045C0.327,-0.038 0.33,-0.032 0.335,-0.026C0.34,-0.021 0.347,-0.019 0.354,-0.019ZM0.198,-0.703C0.207,-0.703 0.213,-0.706 0.218,-0.711C0.223,-0.716 0.226,-0.722 0.226,-0.729C0.226,-0.738 0.223,-0.745 0.218,-0.75C0.213,-0.755 0.207,-0.758 0.198,-0.758C0.19,-0.758 0.184,-0.755 0.179,-0.75C0.174,-0.745 0.171,-0.738 0.171,-0.729C0.171,-0.722 0.174,-0.716 0.179,-0.711C0.184,-0.706 0.19,-0.703 0.198,-0.703ZM0.213,-0.665C0.221,-0.665 0.228,-0.668 0.233,-0.673C0.238,-0.678 0.24,-0.684 0.24,-0.691C0.24,-0.7 0.238,-0.707 0.233,-0.712C0.228,-0.717 0.221,-0.72 0.213,-0.72C0.205,-0.72 0.199,-0.717 0.193,-0.712C0.188,-0.707 0.186,-0.7 0.186,-0.691C0.186,-0.684 0.188,-0.678 0.193,-0.673C0.199,-0.668 0.205,-0.665 0.213,-0.665ZM0.343,-0.111C0.351,-0.111 0.358,-0.114 0.363,-0.119C0.368,-0.124 0.37,-0.131 0.37,-0.138C0.37,-0.146 0.368,-0.153 0.363,-0.158C0.358,-0.163 0.351,-0.166 0.343,-0.166C0.335,-0.166 0.328,-0.163 0.323,-0.158C0.318,-0.153 0.315,-0.146 0.315,-0.138C0.315,-0.131 0.318,-0.124 0.323,-0.119C0.328,-0.114 0.335,-0.111 0.343,-0.111ZM0.343,-0.065C0.351,-0.065 0.358,-0.068 0.363,-0.073C0.368,-0.078 0.37,-0.085 0.37,-0.092C0.37,-0.1 0.368,-0.107 0.363,-0.112C0.358,-0.118 0.351,-0.12 0.343,-0.12C0.335,-0.12 0.328,-0.118 0.323,-0.112C0.318,-0.107 0.315,-0.1 0.315,-0.092C0.315,-0.085 0.318,-0.078 0.323,-0.073C0.328,-0.068 0.335,-0.065 0.343,-0.065ZM0.309,-0.194C0.317,-0.194 0.324,-0.197 0.329,-0.202C0.333,-0.207 0.336,-0.214 0.336,-0.221C0.336,-0.229 0.333,-0.236 0.329,-0.241C0.324,-0.246 0.317,-0.249 0.309,-0.249C0.301,-0.249 0.294,-0.246 0.289,-0.241C0.284,-0.236 0.281,-0.229 0.281,-0.221C0.281,-0.214 0.284,-0.207 0.289,-0.202C0.294,-0.197 0.301,-0.194 0.309,-0.194ZM0.309,-0.147C0.317,-0.147 0.324,-0.15 0.329,-0.155C0.333,-0.16 0.336,-0.167 0.336,-0.174C0.336,-0.182 0.333,-0.189 0.329,-0.194C0.324,-0.2 0.317,-0.202 0.309,-0.202C0.301,-0.202 0.294,-0.2 0.289,-0.194C0.284,-0.189 0.281,-0.182 0.281,-0.174C0.281,-0.167 0.284,-0.16 0.289,-0.155C0.294,-0.15 0.301,-0.147 0.309,-0.147ZM0.232,-0.522C0.241,-0.522 0.248,-0.525 0.252,-0.53C0.257,-0.535 0.26,-0.542 0.26,-0.549C0.26,-0.557 0.257,-0.564 0.252,-0.569C0.248,-0.575 0.241,-0.577 0.232,-0.577C0.225,-0.577 0.218,-0.575 0.213,-0.569C0.208,-0.564 0.205,-0.557 0.205,-0.549C0.205,-0.542 0.208,-0.535 0.213,-0.53C0.218,-0.525 0.225,-0.522 0.232,-0.522ZM0.223,-0.574C0.231,-0.574 0.238,-0.577 0.243,-0.582C0.248,-0.587 0.25,-0.593 0.25,-0.601C0.25,-0.609 0.248,-0.616 0.243,-0.621C0.238,-0.626 0.231,-0.629 0.223,-0.629C0.215,-0.629 0.208,-0.626 0.203,-0.621C0.198,-0.616 0.195,-0.609 0.195,-0.601C0.195,-0.593 0.198,-0.587 0.203,-0.582C0.208,-0.577 0.215,-0.574 0.223,-0.574ZM0.217,-0.617C0.225,-0.617 0.232,-0.62 0.237,-0.625C0.242,-0.63 0.244,-0.636 0.244,-0.644C0.244,-0.652 0.242,-0.659 0.237,-0.664C0.232,-0.669 0.225,-0.672 0.217,-0.672C0.209,-0.672 0.202,-0.669 0.197,-0.664C0.192,-0.659 0.189,-0.652 0.189,-0.644C0.189,-0.636 0.192,-0.63 0.197,-0.625C0.202,-0.62 0.209,-0.617 0.217,-0.617ZM0.28,-0.274C0.289,-0.274 0.295,-0.277 0.3,-0.282C0.305,-0.287 0.308,-0.294 0.308,-0.301C0.308,-0.309 0.305,-0.316 0.3,-0.321C0.295,-0.326 0.289,-0.329 0.28,-0.329C0.272,-0.329 0.266,-0.326 0.261,-0.321C0.256,-0.316 0.253,-0.309 0.253,-0.301C0.253,-0.294 0.256,-0.287 0.261,-0.282C0.266,-0.277 0.272,-0.274 0.28,-0.274ZM0.286,-0.223C0.295,-0.223 0.301,-0.225 0.306,-0.23C0.311,-0.236 0.313,-0.242 0.313,-0.249C0.313,-0.257 0.311,-0.264 0.306,-0.27C0.301,-0.275 0.295,-0.277 0.286,-0.277C0.278,-0.277 0.272,-0.275 0.267,-0.27C0.261,-0.264 0.259,-0.257 0.259,-0.249C0.259,-0.242 0.261,-0.236 0.267,-0.23C0.272,-0.225 0.278,-0.223 0.286,-0.223ZM0.274,-0.363C0.283,-0.363 0.29,-0.366 0.294,-0.371C0.299,-0.376 0.302,-0.382 0.302,-0.39C0.302,-0.398 0.299,-0.405 0.294,-0.41C0.29,-0.415 0.283,-0.418 0.274,-0.418C0.267,-0.418 0.26,-0.415 0.255,-0.41C0.25,-0.405 0.247,-0.398 0.247,-0.39C0.247,-0.382 0.25,-0.376 0.255,-0.371C0.26,-0.366 0.267,-0.363 0.274,-0.363ZM0.274,-0.321C0.283,-0.321 0.29,-0.324 0.294,-0.329C0.299,-0.334 0.302,-0.34 0.302,-0.348C0.302,-0.356 0.299,-0.363 0.294,-0.368C0.29,-0.373 0.283,-0.376 0.274,-0.376C0.267,-0.376 0.26,-0.373 0.255,-0.368C0.25,-0.363 0.247,-0.356 0.247,-0.348C0.247,-0.34 0.25,-0.334 0.255,-0.329C0.26,-0.324 0.267,-0.321 0.274,-0.321ZM0.266,-0.454C0.274,-0.454 0.281,-0.457 0.286,-0.462C0.291,-0.467 0.293,-0.473 0.293,-0.48C0.293,-0.489 0.291,-0.496 0.286,-0.501C0.281,-0.506 0.274,-0.509 0.266,-0.509C0.258,-0.509 0.251,-0.506 0.246,-0.501C0.241,-0.496 0.238,-0.489 0.238,-0.48C0.238,-0.473 0.241,-0.467 0.246,-0.462C0.251,-0.457 0.258,-0.454 0.266,-0.454ZM0.273,-0.403C0.282,-0.403 0.289,-0.406 0.293,-0.411C0.298,-0.416 0.301,-0.423 0.301,-0.43C0.301,-0.438 0.298,-0.445 0.293,-0.45C0.289,-0.455 0.282,-0.458 0.273,-0.458C0.266,-0.458 0.259,-0.455 0.254,-0.45C0.249,-0.445 0.246,-0.438 0.246,-0.43C0.246,-0.423 0.249,-0.416 0.254,-0.411C0.259,-0.406 0.266,-0.403 0.273,-0.403ZM0.233,-0.496C0.242,-0.496 0.249,-0.499 0.253,-0.504C0.258,-0.509 0.261,-0.515 0.261,-0.522C0.261,-0.531 0.258,-0.538 0.253,-0.543C0.249,-0.548 0.242,-0.551 0.233,-0.551C0.226,-0.551 0.219,-0.548 0.214,-0.543C0.209,-0.538 0.206,-0.531 0.206,-0.522C0.206,-0.515 0.209,-0.509 0.214,-0.504C0.219,-0.499 0.226,-0.496 0.233,-0.496ZM0.215,-0.19C0.223,-0.19 0.23,-0.193 0.235,-0.198C0.24,-0.203 0.242,-0.21 0.242,-0.217C0.242,-0.225 0.24,-0.232 0.235,-0.237C0.23,-0.243 0.223,-0.245 0.215,-0.245C0.207,-0.245 0.201,-0.243 0.195,-0.237C0.19,-0.232 0.188,-0.225 0.188,-0.217C0.188,-0.21 0.19,-0.203 0.195,-0.198C0.201,-0.193 0.207,-0.19 0.215,-0.19ZM0.171,-0.199C0.179,-0.199 0.186,-0.202 0.191,-0.207C0.196,-0.212 0.198,-0.218 0.198,-0.226C0.198,-0.234 0.196,-0.241 0.191,-0.246C0.186,-0.251 0.179,-0.254 0.171,-0.254C0.163,-0.254 0.157,-0.251 0.151,-0.246C0.146,-0.241 0.144,-0.234 0.144,-0.226C0.144,-0.218 0.146,-0.212 0.151,-0.207C0.157,-0.202 0.163,-0.199 0.171,-0.199ZM0.131,-0.186C0.139,-0.186 0.146,-0.188 0.151,-0.193C0.156,-0.199 0.158,-0.205 0.158,-0.212C0.158,-0.22 0.156,-0.227 0.151,-0.232C0.146,-0.238 0.139,-0.24 0.131,-0.24C0.123,-0.24 0.117,-0.238 0.111,-0.232C0.106,-0.227 0.104,-0.22 0.104,-0.212C0.104,-0.205 0.106,-0.199 0.111,-0.193C0.117,-0.188 0.123,-0.186 0.131,-0.186ZM0.274,-0.179C0.283,-0.179 0.29,-0.181 0.294,-0.187C0.299,-0.192 0.302,-0.198 0.302,-0.205C0.302,-0.214 0.299,-0.22 0.294,-0.226C0.29,-0.231 0.283,-0.233 0.274,-0.233C0.267,-0.233 0.26,-0.231 0.255,-0.226C0.25,-0.22 0.247,-0.214 0.247,-0.205C0.247,-0.198 0.25,-0.192 0.255,-0.187C0.26,-0.181 0.267,-0.179 0.274,-0.179Z" style="fill:#fff;fill-rule:nonzero;"/>
                </g>
                <g transform="matrix(775,0,0,775,492.411877,595.286342)">
                    <path d="M0.067,-0.052C0.076,-0.052 0.083,-0.054 0.087,-0.06C0.092,-0.065 0.095,-0.071 0.095,-0.078C0.095,-0.087 0.092,-0.093 0.087,-0.099C0.083,-0.104 0.076,-0.106 0.067,-0.106C0.06,-0.106 0.053,-0.104 0.048,-0.099C0.043,-0.093 0.04,-0.087 0.04,-0.078C0.04,-0.071 0.043,-0.065 0.048,-0.06C0.053,-0.054 0.06,-0.052 0.067,-0.052ZM0.078,-0.107C0.087,-0.107 0.093,-0.11 0.098,-0.115C0.103,-0.12 0.105,-0.127 0.105,-0.134C0.105,-0.142 0.103,-0.149 0.098,-0.154C0.093,-0.16 0.087,-0.162 0.078,-0.162C0.07,-0.162 0.064,-0.16 0.059,-0.154C0.053,-0.149 0.051,-0.142 0.051,-0.134C0.051,-0.127 0.053,-0.12 0.059,-0.115C0.064,-0.11 0.07,-0.107 0.078,-0.107ZM0.064,-0.154C0.073,-0.154 0.08,-0.157 0.084,-0.162C0.089,-0.167 0.092,-0.174 0.092,-0.181C0.092,-0.189 0.089,-0.196 0.084,-0.201C0.08,-0.206 0.073,-0.209 0.064,-0.209C0.057,-0.209 0.05,-0.206 0.045,-0.201C0.04,-0.196 0.037,-0.189 0.037,-0.181C0.037,-0.174 0.04,-0.167 0.045,-0.162C0.05,-0.157 0.057,-0.154 0.064,-0.154ZM0.066,-0.183C0.075,-0.183 0.082,-0.185 0.086,-0.19C0.091,-0.196 0.094,-0.202 0.094,-0.209C0.094,-0.217 0.091,-0.224 0.086,-0.229C0.082,-0.235 0.075,-0.237 0.066,-0.237C0.059,-0.237 0.052,-0.235 0.047,-0.229C0.042,-0.224 0.039,-0.217 0.039,-0.209C0.039,-0.202 0.042,-0.196 0.047,-0.19C0.052,-0.185 0.059,-0.183 0.066,-0.183ZM0.113,-0.231C0.122,-0.231 0.128,-0.234 0.133,-0.239C0.138,-0.244 0.141,-0.251 0.141,-0.258C0.141,-0.266 0.138,-0.273 0.133,-0.278C0.128,-0.284 0.122,-0.286 0.113,-0.286C0.105,-0.286 0.099,-0.284 0.094,-0.278C0.089,-0.273 0.086,-0.266 0.086,-0.258C0.086,-0.251 0.089,-0.244 0.094,-0.239C0.099,-0.234 0.105,-0.231 0.113,-0.231ZM0.075,-0.351C0.084,-0.351 0.09,-0.353 0.095,-0.358C0.1,-0.364 0.103,-0.37 0.103,-0.377C0.103,-0.385 0.1,-0.392 0.095,-0.397C0.09,-0.403 0.084,-0.405 0.075,-0.405C0.067,-0.405 0.061,-0.403 0.056,-0.397C0.05,-0.392 0.048,-0.385 0.048,-0.377C0.048,-0.37 0.05,-0.364 0.056,-0.358C0.061,-0.353 0.067,-0.351 0.075,-0.351ZM0.048,-0.414C0.056,-0.414 0.063,-0.417 0.068,-0.422C0.073,-0.427 0.075,-0.433 0.075,-0.44C0.075,-0.449 0.073,-0.456 0.068,-0.461C0.063,-0.466 0.056,-0.469 0.048,-0.469C0.04,-0.469 0.034,-0.466 0.028,-0.461C0.023,-0.456 0.021,-0.449 0.021,-0.44C0.021,-0.433 0.023,-0.427 0.028,-0.422C0.034,-0.417 0.04,-0.414 0.048,-0.414ZM0.064,-0.438C0.073,-0.438 0.08,-0.44 0.084,-0.445C0.089,-0.451 0.092,-0.457 0.092,-0.464C0.092,-0.472 0.089,-0.479 0.084,-0.484C0.08,-0.49 0.073,-0.492 0.064,-0.492C0.057,-0.492 0.05,-0.49 0.045,-0.484C0.04,-0.479 0.037,-0.472 0.037,-0.464C0.037,-0.457 0.04,-0.451 0.045,-0.445C0.05,-0.44 0.057,-0.438 0.064,-0.438ZM0.079,-0.496C0.088,-0.496 0.094,-0.499 0.099,-0.504C0.104,-0.509 0.106,-0.515 0.106,-0.522C0.106,-0.531 0.104,-0.538 0.099,-0.543C0.094,-0.548 0.088,-0.551 0.079,-0.551C0.071,-0.551 0.065,-0.548 0.06,-0.543C0.054,-0.538 0.052,-0.531 0.052,-0.522C0.052,-0.515 0.054,-0.509 0.06,-0.504C0.065,-0.499 0.071,-0.496 0.079,-0.496ZM0.108,-0.522C0.117,-0.522 0.124,-0.525 0.128,-0.53C0.133,-0.535 0.136,-0.542 0.136,-0.549C0.136,-0.557 0.133,-0.564 0.128,-0.569C0.124,-0.575 0.117,-0.577 0.108,-0.577C0.101,-0.577 0.094,-0.575 0.089,-0.569C0.084,-0.564 0.081,-0.557 0.081,-0.549C0.081,-0.542 0.084,-0.535 0.089,-0.53C0.094,-0.525 0.101,-0.522 0.108,-0.522ZM0.11,-0.009C0.119,-0.009 0.125,-0.011 0.13,-0.017C0.135,-0.022 0.138,-0.028 0.138,-0.035C0.138,-0.044 0.135,-0.05 0.13,-0.056C0.125,-0.061 0.119,-0.063 0.11,-0.063C0.103,-0.063 0.096,-0.061 0.091,-0.056C0.086,-0.05 0.083,-0.044 0.083,-0.035C0.083,-0.028 0.086,-0.022 0.091,-0.017C0.096,-0.011 0.103,-0.009 0.11,-0.009ZM0.147,-0.017C0.156,-0.017 0.163,-0.019 0.167,-0.024C0.172,-0.03 0.175,-0.036 0.175,-0.043C0.175,-0.051 0.172,-0.058 0.167,-0.063C0.163,-0.069 0.156,-0.071 0.147,-0.071C0.14,-0.071 0.133,-0.069 0.128,-0.063C0.123,-0.058 0.12,-0.051 0.12,-0.043C0.12,-0.036 0.123,-0.03 0.128,-0.024C0.133,-0.019 0.14,-0.017 0.147,-0.017ZM0.199,-0.06C0.208,-0.06 0.214,-0.062 0.219,-0.067C0.224,-0.073 0.227,-0.079 0.227,-0.086C0.227,-0.094 0.224,-0.101 0.219,-0.106C0.214,-0.112 0.208,-0.114 0.199,-0.114C0.191,-0.114 0.185,-0.112 0.18,-0.106C0.174,-0.101 0.172,-0.094 0.172,-0.086C0.172,-0.079 0.174,-0.073 0.18,-0.067C0.185,-0.062 0.191,-0.06 0.199,-0.06ZM0.284,-0.029C0.293,-0.029 0.299,-0.032 0.304,-0.037C0.309,-0.042 0.312,-0.049 0.312,-0.056C0.312,-0.064 0.309,-0.071 0.304,-0.076C0.299,-0.081 0.293,-0.084 0.284,-0.084C0.276,-0.084 0.27,-0.081 0.265,-0.076C0.259,-0.071 0.257,-0.064 0.257,-0.056C0.257,-0.049 0.259,-0.042 0.265,-0.037C0.27,-0.032 0.276,-0.029 0.284,-0.029ZM0.158,-0.539C0.167,-0.539 0.173,-0.542 0.178,-0.547C0.183,-0.552 0.186,-0.558 0.186,-0.565C0.186,-0.574 0.183,-0.581 0.178,-0.586C0.173,-0.591 0.167,-0.594 0.158,-0.594C0.15,-0.594 0.144,-0.591 0.139,-0.586C0.133,-0.581 0.131,-0.574 0.131,-0.565C0.131,-0.558 0.133,-0.552 0.139,-0.547C0.144,-0.542 0.15,-0.539 0.158,-0.539ZM0.199,-0.538C0.208,-0.538 0.214,-0.541 0.219,-0.546C0.224,-0.551 0.227,-0.557 0.227,-0.564C0.227,-0.573 0.224,-0.58 0.219,-0.585C0.214,-0.59 0.208,-0.593 0.199,-0.593C0.191,-0.593 0.185,-0.59 0.18,-0.585C0.174,-0.58 0.172,-0.573 0.172,-0.564C0.172,-0.557 0.174,-0.551 0.18,-0.546C0.185,-0.541 0.191,-0.538 0.199,-0.538ZM0.252,-0.528C0.26,-0.528 0.267,-0.531 0.272,-0.536C0.277,-0.541 0.279,-0.548 0.279,-0.555C0.279,-0.563 0.277,-0.57 0.272,-0.575C0.267,-0.58 0.26,-0.583 0.252,-0.583C0.244,-0.583 0.238,-0.58 0.232,-0.575C0.227,-0.57 0.225,-0.563 0.225,-0.555C0.225,-0.548 0.227,-0.541 0.232,-0.536C0.238,-0.531 0.244,-0.528 0.252,-0.528ZM0.284,-0.355C0.293,-0.355 0.299,-0.358 0.304,-0.363C0.309,-0.368 0.312,-0.375 0.312,-0.382C0.312,-0.39 0.309,-0.397 0.304,-0.402C0.299,-0.408 0.293,-0.41 0.284,-0.41C0.276,-0.41 0.27,-0.408 0.265,-0.402C0.259,-0.397 0.257,-0.39 0.257,-0.382C0.257,-0.375 0.259,-0.368 0.265,-0.363C0.27,-0.358 0.276,-0.355 0.284,-0.355ZM0.287,-0.481C0.296,-0.481 0.302,-0.484 0.307,-0.489C0.312,-0.494 0.314,-0.501 0.314,-0.508C0.314,-0.516 0.312,-0.523 0.307,-0.528C0.302,-0.534 0.296,-0.536 0.287,-0.536C0.279,-0.536 0.273,-0.534 0.268,-0.528C0.262,-0.523 0.26,-0.516 0.26,-0.508C0.26,-0.501 0.262,-0.494 0.268,-0.489C0.273,-0.484 0.279,-0.481 0.287,-0.481ZM0.291,-0.447C0.299,-0.447 0.306,-0.45 0.311,-0.455C0.316,-0.46 0.318,-0.466 0.318,-0.474C0.318,-0.482 0.316,-0.489 0.311,-0.494C0.306,-0.499 0.299,-0.502 0.291,-0.502C0.283,-0.502 0.277,-0.499 0.271,-0.494C0.266,-0.489 0.264,-0.482 0.264,-0.474C0.264,-0.466 0.266,-0.46 0.271,-0.455C0.277,-0.45 0.283,-0.447 0.291,-0.447ZM0.271,-0.405C0.279,-0.405 0.286,-0.408 0.291,-0.413C0.295,-0.418 0.298,-0.424 0.298,-0.432C0.298,-0.44 0.295,-0.447 0.291,-0.452C0.286,-0.457 0.279,-0.46 0.271,-0.46C0.263,-0.46 0.256,-0.457 0.251,-0.452C0.246,-0.447 0.243,-0.44 0.243,-0.432C0.243,-0.424 0.246,-0.418 0.251,-0.413C0.256,-0.408 0.263,-0.405 0.271,-0.405ZM0.29,-0.31C0.299,-0.31 0.305,-0.312 0.31,-0.317C0.315,-0.323 0.317,-0.329 0.317,-0.336C0.317,-0.344 0.315,-0.351 0.31,-0.356C0.305,-0.362 0.299,-0.364 0.29,-0.364C0.282,-0.364 0.276,-0.362 0.271,-0.356C0.265,-0.351 0.263,-0.344 0.263,-0.336C0.263,-0.329 0.265,-0.323 0.271,-0.317C0.276,-0.312 0.282,-0.31 0.29,-0.31ZM0.274,-0.281C0.283,-0.281 0.29,-0.284 0.294,-0.289C0.299,-0.294 0.302,-0.3 0.302,-0.308C0.302,-0.316 0.299,-0.323 0.294,-0.328C0.29,-0.333 0.283,-0.336 0.274,-0.336C0.267,-0.336 0.26,-0.333 0.255,-0.328C0.25,-0.323 0.247,-0.316 0.247,-0.308C0.247,-0.3 0.25,-0.294 0.255,-0.289C0.26,-0.284 0.267,-0.281 0.274,-0.281ZM0.285,-0.224C0.294,-0.224 0.3,-0.226 0.305,-0.231C0.31,-0.237 0.312,-0.243 0.312,-0.25C0.312,-0.258 0.31,-0.265 0.305,-0.271C0.3,-0.276 0.294,-0.278 0.285,-0.278C0.277,-0.278 0.271,-0.276 0.266,-0.271C0.26,-0.265 0.258,-0.258 0.258,-0.25C0.258,-0.243 0.26,-0.237 0.266,-0.231C0.271,-0.226 0.277,-0.224 0.285,-0.224ZM0.285,-0.178C0.294,-0.178 0.3,-0.18 0.305,-0.186C0.31,-0.191 0.312,-0.197 0.312,-0.204C0.312,-0.213 0.31,-0.219 0.305,-0.225C0.3,-0.23 0.294,-0.232 0.285,-0.232C0.277,-0.232 0.271,-0.23 0.266,-0.225C0.26,-0.219 0.258,-0.213 0.258,-0.204C0.258,-0.197 0.26,-0.191 0.266,-0.186C0.271,-0.18 0.277,-0.178 0.285,-0.178ZM0.297,-0.139C0.305,-0.139 0.312,-0.141 0.317,-0.146C0.322,-0.152 0.324,-0.158 0.324,-0.165C0.324,-0.174 0.322,-0.18 0.317,-0.186C0.312,-0.191 0.305,-0.193 0.297,-0.193C0.289,-0.193 0.283,-0.191 0.277,-0.186C0.272,-0.18 0.27,-0.174 0.27,-0.165C0.27,-0.158 0.272,-0.152 0.277,-0.146C0.283,-0.141 0.289,-0.139 0.297,-0.139ZM0.274,-0.113C0.283,-0.113 0.29,-0.116 0.294,-0.121C0.299,-0.126 0.302,-0.132 0.302,-0.14C0.302,-0.148 0.299,-0.155 0.294,-0.16C0.29,-0.165 0.283,-0.168 0.274,-0.168C0.267,-0.168 0.26,-0.165 0.255,-0.16C0.25,-0.155 0.247,-0.148 0.247,-0.14C0.247,-0.132 0.25,-0.126 0.255,-0.121C0.26,-0.116 0.267,-0.113 0.274,-0.113ZM0.283,-0.068C0.292,-0.068 0.298,-0.071 0.303,-0.076C0.308,-0.081 0.311,-0.088 0.311,-0.095C0.311,-0.103 0.308,-0.11 0.303,-0.115C0.298,-0.12 0.292,-0.123 0.283,-0.123C0.275,-0.123 0.269,-0.12 0.264,-0.115C0.258,-0.11 0.256,-0.103 0.256,-0.095C0.256,-0.088 0.258,-0.081 0.264,-0.076C0.269,-0.071 0.275,-0.068 0.283,-0.068ZM0.154,-0.284C0.163,-0.284 0.169,-0.287 0.174,-0.292C0.179,-0.297 0.182,-0.303 0.182,-0.311C0.182,-0.319 0.179,-0.326 0.174,-0.331C0.169,-0.336 0.163,-0.339 0.154,-0.339C0.146,-0.339 0.14,-0.336 0.135,-0.331C0.13,-0.326 0.127,-0.319 0.127,-0.311C0.127,-0.303 0.13,-0.297 0.135,-0.292C0.14,-0.287 0.146,-0.284 0.154,-0.284ZM0.195,-0.267C0.204,-0.267 0.21,-0.269 0.215,-0.274C0.22,-0.28 0.223,-0.286 0.223,-0.293C0.223,-0.301 0.22,-0.308 0.215,-0.313C0.21,-0.319 0.204,-0.321 0.195,-0.321C0.188,-0.321 0.181,-0.319 0.176,-0.313C0.171,-0.308 0.168,-0.301 0.168,-0.293C0.168,-0.286 0.171,-0.28 0.176,-0.274C0.181,-0.269 0.188,-0.267 0.195,-0.267ZM0.238,-0.266C0.247,-0.266 0.253,-0.268 0.258,-0.273C0.263,-0.279 0.266,-0.285 0.266,-0.292C0.266,-0.3 0.263,-0.307 0.258,-0.312C0.253,-0.318 0.247,-0.32 0.238,-0.32C0.23,-0.32 0.224,-0.318 0.219,-0.312C0.214,-0.307 0.211,-0.3 0.211,-0.292C0.211,-0.285 0.214,-0.279 0.219,-0.273C0.224,-0.268 0.23,-0.266 0.238,-0.266ZM0.23,-0.082C0.239,-0.082 0.246,-0.085 0.25,-0.09C0.255,-0.095 0.258,-0.101 0.258,-0.108C0.258,-0.117 0.255,-0.124 0.25,-0.129C0.246,-0.134 0.239,-0.137 0.23,-0.137C0.223,-0.137 0.216,-0.134 0.211,-0.129C0.206,-0.124 0.203,-0.117 0.203,-0.108C0.203,-0.101 0.206,-0.095 0.211,-0.09C0.216,-0.085 0.223,-0.082 0.23,-0.082Z" style="fill:#fff;fill-rule:nonzero;"/>
                </g>
            </g>
        </g>
    </g>
    <g id="header1" affinity:id="header">
    </g>
</svg>
