<?xml version="1.0" encoding="UTF-8"?>
<svg id="Layer_1" data-name="Layer 1" xmlns="http://www.w3.org/2000/svg" xmlns:xlink="http://www.w3.org/1999/xlink" viewBox="0 0 301.5 300">
  <defs>
    <style>
      .cls-1, .cls-2, .cls-3 {
        fill: none;
      }

      .cls-2 {
        stroke-dasharray: 0 0 0 3;
      }

      .cls-2, .cls-3 {
        stroke: #c2c2c2;
        stroke-linecap: round;
        stroke-linejoin: round;
        stroke-width: 1.5px;
      }

      .cls-4 {
        clip-path: url(#clippath);
      }

      .cls-5 {
        fill: #fff;
      }

      .cls-6 {
        fill: #142713;
      }
    </style>
    <clipPath id="clippath">
      <rect class="cls-1" x=".75" width="300" height="300"/>
    </clipPath>
  </defs>
  <g class="cls-4">
    <polygon class="cls-5" points=".75 0 .75 300 300.75 300 300.75 0 .75 0 .75 0"/>
    <line class="cls-2" x1="3.75" y1="216.73" x2="299.25" y2="216.73"/>
    <path class="cls-3" d="M.75,216.73H.75m300,0h0"/>
    <line class="cls-2" x1="3.75" y1="48.82" x2="299.25" y2="48.82"/>
    <path class="cls-3" d="M.75,48.82H.75m300,0h0"/>
    <line class="cls-2" x1="3.75" y1="250.32" x2="299.25" y2="250.32"/>
    <path class="cls-3" d="M.75,250.32H.75m300,0h0"/>
    <line class="cls-2" x1="3.75" y1="82.42" x2="299.25" y2="82.42"/>
    <path class="cls-3" d="M.75,82.42H.75m300,0h0"/>
  </g>
  <path class="cls-6" d="M52.73,146.3c1.3-18.79,16.74-33.48,35.71-33.48s34.41,14.69,35.71,33.48h29.02c-1.3-34.6-29.95-62.5-64.73-62.5s-63.43,27.9-64.73,62.5h29.02Zm0,66.96v-62.5H23.71v62.5h29.02Zm66.96-33.48v-29.02H57.19v29.02h62.5Zm33.48,33.48v-62.5h-29.02v62.5h29.02Zm89.28-100.44c-1.3-16.18-14.88-29.02-31.25-29.02s-29.95,12.83-31.25,29.02h62.5Zm33.48,100.44V83.81h-29.02V213.26h29.02Zm-66.96-33.48v-62.5h-29.02v62.5h29.02Zm2.23,33.48c16.37,0,29.95-12.83,31.25-29.02h-62.5c1.3,16.18,14.88,29.02,31.25,29.02h0Z"/>
</svg>